<svg xmlns="http://www.w3.org/2000/svg" width="105.461" height="96.394" viewBox="0 0 105.461 96.394">
  <g id="Group_326" data-name="Group 326" transform="translate(-1105.53 -8394.449)">
    <g id="device-white" transform="translate(915.528 8354.949)">
      <path id="Subtraction_2" data-name="Subtraction 2" d="M-834.713-8284.446H-936.882a1.647,1.647,0,0,1-1.645-1.646V-8350.3a1.648,1.648,0,0,1,1.645-1.647h102.168a1.649,1.649,0,0,1,1.648,1.647v64.211A1.648,1.648,0,0,1-834.713-8284.446Zm-62.955-27.582v24.651h23.74v-24.651Zm-5.7-31.657v22.307h35.742v-22.307Z" transform="translate(1128.529 8420.341)" fill="#fff"/>
      <rect id="Rectangle_1579" data-name="Rectangle 1579" width="9.132" height="2.088" transform="translate(238.309 105.855)" fill="rgba(153,153,153,0.21)"/>
      <rect id="Rectangle_1580" data-name="Rectangle 1580" width="23.74" height="1.827" transform="translate(230.861 131.138)" fill="rgba(26,26,26,0.1)"/>
      <path id="Path_1007" data-name="Path 1007" d="M204.852,40.281V59.327a2.547,2.547,0,0,1-.52,1.175c-.379.464-.745.531-1.175.914a3.13,3.13,0,0,0-.914,1.566c-.042.742-.087,1.478-.129,2.218h1.827V67.94h-7.176V65.078h1.827l-.129-2.218a2.141,2.141,0,0,0-.391-1.043c-.4-.548-.891-.582-1.433-1.046a3.091,3.091,0,0,1-.914-1.433V40.152a.656.656,0,0,1,.129-.391.7.7,0,0,1,.523-.261H204.2a1.052,1.052,0,0,1,.391.261,1.028,1.028,0,0,1,.259.52Z" transform="translate(3.475)" fill="rgba(255,255,255,0.7)"/>
      <path id="Path_1008" data-name="Path 1008" d="M210.945,40.281V59.327a2.57,2.57,0,0,1-.523,1.175c-.379.464-.745.531-1.175.914a3.131,3.131,0,0,0-.913,1.566c-.042.742-.087,1.478-.129,2.218h1.824V67.94h-7.173V65.078h1.824c-.042-.739-.087-1.476-.129-2.218a2.134,2.134,0,0,0-.391-1.043c-.407-.548-.894-.582-1.433-1.046a3.091,3.091,0,0,1-.914-1.434V40.152a.667.667,0,0,1,.129-.391.705.705,0,0,1,.523-.261h7.828a1.063,1.063,0,0,1,.391.261,1.05,1.05,0,0,1,.261.52Z" transform="translate(9.136)" fill="rgba(255,255,255,0.7)"/>
      <path id="Path_1009" data-name="Path 1009" d="M217.033,40.281V59.327a2.552,2.552,0,0,1-.523,1.175c-.38.464-.745.531-1.175.914a3.13,3.13,0,0,0-.913,1.566l-.129,2.218h1.827V67.94h-7.176V65.078h1.827c-.042-.739-.087-1.476-.129-2.218a2.154,2.154,0,0,0-.391-1.043c-.4-.548-.891-.582-1.434-1.046a3.092,3.092,0,0,1-.914-1.433V40.152a.655.655,0,0,1,.129-.391.7.7,0,0,1,.523-.261h7.825a1.08,1.08,0,0,1,.391.261,1.055,1.055,0,0,1,.261.52Z" transform="translate(13.848)" fill="rgba(255,255,255,0.7)"/>
      <path id="Path_1010" data-name="Path 1010" d="M223.12,40.281V59.327A2.531,2.531,0,0,1,222.6,60.5c-.379.464-.742.531-1.172.913a3.13,3.13,0,0,0-.913,1.566c-.042.742-.087,1.478-.129,2.218h1.827V67.94h-7.176V65.078h1.827l-.129-2.218a2.157,2.157,0,0,0-.391-1.043c-.4-.548-.891-.582-1.434-1.046a3.092,3.092,0,0,1-.913-1.434V40.152a.654.654,0,0,1,.129-.391.7.7,0,0,1,.523-.261h7.825a1.065,1.065,0,0,1,.391.261,1.03,1.03,0,0,1,.259.52Z" transform="translate(18.56)" fill="rgba(255,255,255,0.7)"/>
      <path id="Path_1011" data-name="Path 1011" d="M229.221,40.281V59.327A2.57,2.57,0,0,1,228.7,60.5c-.38.464-.745.531-1.175.914a3.12,3.12,0,0,0-.914,1.566c-.042.742-.087,1.478-.129,2.218h1.813V67.94H221.12V65.078h1.824c-.042-.739-.087-1.476-.129-2.218a2.133,2.133,0,0,0-.391-1.043c-.408-.548-.894-.582-1.433-1.046a3.091,3.091,0,0,1-.914-1.433V40.152a.666.666,0,0,1,.129-.391.7.7,0,0,1,.523-.261h7.845a1.064,1.064,0,0,1,.391.261,1.05,1.05,0,0,1,.256.52Z" transform="translate(23.261)" fill="rgba(255,255,255,0.7)"/>
      <path id="Path_1012" data-name="Path 1012" d="M235.3,40.281V59.327a2.551,2.551,0,0,1-.523,1.175c-.379.464-.745.531-1.175.914a3.13,3.13,0,0,0-.914,1.566L232.56,65.2h1.827V67.94h-7.176V65.078h1.827c-.042-.739-.087-1.476-.129-2.218a2.156,2.156,0,0,0-.391-1.043c-.407-.548-.891-.582-1.433-1.046a3.092,3.092,0,0,1-.914-1.434V40.152a.656.656,0,0,1,.129-.391.7.7,0,0,1,.52-.261h7.828a1.063,1.063,0,0,1,.391.261A1.049,1.049,0,0,1,235.3,40.281Z" transform="translate(27.977)" fill="rgba(255,255,255,0.7)"/>
      <path id="Path_1013" data-name="Path 1013" d="M241.388,40.281V59.327a2.55,2.55,0,0,1-.523,1.175c-.38.464-.742.531-1.172.913a3.129,3.129,0,0,0-.913,1.566c-.042.742-.087,1.478-.129,2.218h1.827V67.94H233.3V65.078h1.827L235,62.861a2.155,2.155,0,0,0-.391-1.043c-.4-.548-.891-.582-1.434-1.046a3.092,3.092,0,0,1-.913-1.434V40.152a.656.656,0,0,1,.129-.391.7.7,0,0,1,.523-.261h7.825a1.065,1.065,0,0,1,.391.261,1.026,1.026,0,0,1,.259.52Z" transform="translate(32.689)" fill="rgba(255,255,255,0.7)"/>
      <path id="Path_1014" data-name="Path 1014" d="M247.483,40.281V59.327a2.546,2.546,0,0,1-.52,1.175c-.38.464-.745.531-1.175.913a3.12,3.12,0,0,0-.913,1.566c-.042.742-.087,1.478-.132,2.218h1.827V67.94H239.4V65.078h1.824c-.042-.739-.087-1.476-.129-2.218a2.151,2.151,0,0,0-.391-1.043c-.408-.548-.894-.582-1.436-1.046a3.091,3.091,0,0,1-.914-1.433V40.152a.666.666,0,0,1,.129-.391A.7.7,0,0,1,239,39.5h7.828a1.062,1.062,0,0,1,.391.261A1.025,1.025,0,0,1,247.483,40.281Z" transform="translate(38.396)" fill="rgba(255,255,255,0.7)"/>
      <rect id="Rectangle_1581" data-name="Rectangle 1581" width="29.052" height="18.132" transform="translate(228.5 78.742)" fill="#fff"/>
    </g>
  </g>
</svg>
