<svg id="Group_327" data-name="Group 327" xmlns="http://www.w3.org/2000/svg" width="223.044" height="223.116" viewBox="0 0 223.044 223.116">
  <path id="Path_1807" data-name="Path 1807" d="M127,0h49c10.2,5.5,10.3,23.4.4,31.7,10.6,24,20.6,48,20,75.5,4.8,0,9.2-.1,13.6,0,8,.3,12.9,5.3,13,13.4.1,3.3,0,6.7,0,10,0,11.2-2.2,14.1-12.1,17-1.4,8-2.1,15.8-4.1,23.2-3.9,14.1-8.4,28-12.9,41.9-1.9,5.9-5.3,10.4-12.3,10.4-46.5,0-93,.1-139.4-.2-3,0-6.7-2-8.9-4.3a21.458,21.458,0,0,1-5.1-9.5c-5.1-20.5-15.7-39.7-14.8-61.5C5.1,145.8,3.5,144.5,0,137V117c3.4-9.5,11.4-10.3,19.6-10,1.9-19,9.9-33.5,27.2-41.2,17.1-7.7,33.3-4.6,48.6,6.9,4.6-6.6,10.1-9.1,16.6-3.3,5-13.2,10-25.7,15-38.5-5.2-1.8-6.7-6.1-6.3-11.7a46.951,46.951,0,0,0,0-7.5C120.2,6.4,122.2,2.5,127,0Zm11.2,147.3v5.9c0,15.3-.1,30.7,0,46,0,4.2-1.5,6.2-5.9,6-3-.1-6,0-9,0-6.3,0-7.3-.9-7.3-7.2V147.5h-9v50.8c0,6.1-.7,6.8-7,6.9-3,0-6-.1-9,0-4.6.3-6.2-1.9-6.1-6.3.1-15.3.1-30.7.1-46v-5.4H76v50.9c0,5.6-1.2,6.7-6.7,6.8-3,0-6-.2-9,0-4.7.3-6.5-1.7-6.5-6.4.2-15.3.1-30.7.1-46v-5.2H22.5c0,4.7-1,9.3.2,13.3,4.4,15.8,9.5,31.5,14.3,47.2,1.4,4.4,4,6.4,9.2,6.4,43.5-.2,87-.1,130.5-.1,7.8,0,8.1-.2,10.4-7.7,4.1-13.7,8.6-27.3,12.3-41,1.6-5.8,1.7-11.9,2.5-18.2H169.8v43.1c0,16.8,1.2,14.5-14.8,14.6-6.5.1-7.3-.8-7.3-7.6v-45c0-1.7-.2-3.5-.3-5.3ZM111.7,116H35.2c-7,0-14,.1-21,0-3.9-.1-5.5,1.6-5.3,5.4.2,2.8,0,5.7,0,8.5,0,8.7,0,8.7,8.5,8.7h192c3.3,0,4.9-1.7,4.9-4.9,0-3.5.1-7,0-10.5-.1-6.4-.7-7.1-7.2-7.1C175.4,116,143.5,116,111.7,116Zm74.8-7.8c.6-.6,1.2-1.3,1.8-1.9-.8-6.7-1-13.5-2.4-20.1-3.6-17.6-9.1-34.6-17.8-50.5-1.7-3.1-3.7-5.1-7.8-4.8a120.564,120.564,0,0,1-17,0c-3.9-.3-6.5,1.1-7.9,4.5-4.9,11.9-9.6,24-14.4,35.9-1.2,3,.8,3.7,2.8,4.8,16.5,9.3,32.9,18.8,49.5,27.8C177.3,106.2,182.1,106.9,186.5,108.2ZM88.3,78.9C78,69.6,62.1,67.7,49.3,74c-12.6,6.2-21,19.9-20.1,33.1H56.5a4.188,4.188,0,0,0,2.7-.9C69,97.2,78.6,88.1,88.3,78.9Zm71.8,28c-18.5-10.5-35.7-20.2-52.9-29.8-1-.6-3.2-.7-3.9-.1-10.5,9.7-20.8,19.5-31.8,29.9ZM129.6,9.1v13h44.1V9.1Zm-64.3,188c.5-.4,1-.9,1.5-1.3V147.5c-3-.9-4.5-.5-4.5,2.9.1,14.3,0,28.6.2,42.9C62.5,194.7,64.3,195.9,65.3,197.1Zm60-49.6v48.7c.5.3.9.6,1.4.9,1-1.2,2.8-2.5,2.8-3.7.2-14.3.1-28.6.2-42.8C129.7,147.1,128.2,146.6,125.3,147.5Zm35.4.1c-4-1.4-4.7.3-4.7,3.5.1,14.5.1,29,.1,43.5a10.145,10.145,0,0,0,.4,1.8c1.4-.1,2.7-.1,4.2-.2ZM98.2,196c0-15.4,0-30.9-.1-46.3,0-.9-1.3-1.7-2-2.6-.8,1-2.2,1.9-2.2,2.9-.1,14.5-.1,28.9-.1,43.4C93.7,196.7,95.2,197,98.2,196Z" fill="#fff"/>
</svg>
