<svg xmlns="http://www.w3.org/2000/svg" xmlns:xlink="http://www.w3.org/1999/xlink" width="124.15" height="128.292" viewBox="0 0 124.15 128.292">
  <defs>
    <filter id="Path_235" x="5" y="62.049" width="45.374" height="45.545" filterUnits="userSpaceOnUse">
      <feOffset dx="3" dy="3" input="SourceAlpha"/>
      <feGaussianBlur stdDeviation="3" result="blur"/>
      <feFlood flood-opacity="0.161"/>
      <feComposite operator="in" in2="blur"/>
      <feComposite in="SourceGraphic"/>
    </filter>
    <filter id="Path_236" x="78.753" y="62.037" width="45.396" height="45.533" filterUnits="userSpaceOnUse">
      <feOffset dx="3" dy="3" input="SourceAlpha"/>
      <feGaussianBlur stdDeviation="3" result="blur-2"/>
      <feFlood flood-opacity="0.161"/>
      <feComposite operator="in" in2="blur-2"/>
      <feComposite in="SourceGraphic"/>
    </filter>
    <filter id="Path_237" x="10.233" y="0" width="110.93" height="75.386" filterUnits="userSpaceOnUse">
      <feOffset dx="3" dy="3" input="SourceAlpha"/>
      <feGaussianBlur stdDeviation="3" result="blur-3"/>
      <feFlood flood-opacity="0.161"/>
      <feComposite operator="in" in2="blur-3"/>
      <feComposite in="SourceGraphic"/>
    </filter>
    <filter id="Path_238" x="63.513" y="50.934" width="31.697" height="56.492" filterUnits="userSpaceOnUse">
      <feOffset dx="3" dy="3" input="SourceAlpha"/>
      <feGaussianBlur stdDeviation="3" result="blur-4"/>
      <feFlood flood-opacity="0.161"/>
      <feComposite operator="in" in2="blur-4"/>
      <feComposite in="SourceGraphic"/>
    </filter>
    <filter id="Path_239" x="32.228" y="43.564" width="32.709" height="32.709" filterUnits="userSpaceOnUse">
      <feOffset dx="3" dy="3" input="SourceAlpha"/>
      <feGaussianBlur stdDeviation="3" result="blur-5"/>
      <feFlood flood-opacity="0.161"/>
      <feComposite operator="in" in2="blur-5"/>
      <feComposite in="SourceGraphic"/>
    </filter>
    <filter id="Path_240" x="32.798" y="63.448" width="31.599" height="43.957" filterUnits="userSpaceOnUse">
      <feOffset dx="3" dy="3" input="SourceAlpha"/>
      <feGaussianBlur stdDeviation="3" result="blur-6"/>
      <feFlood flood-opacity="0.161"/>
      <feComposite operator="in" in2="blur-6"/>
      <feComposite in="SourceGraphic"/>
    </filter>
    <filter id="Path_241" x="51.397" y="49.057" width="27.184" height="27.184" filterUnits="userSpaceOnUse">
      <feOffset dx="3" dy="3" input="SourceAlpha"/>
      <feGaussianBlur stdDeviation="3" result="blur-7"/>
      <feFlood flood-opacity="0.161"/>
      <feComposite operator="in" in2="blur-7"/>
      <feComposite in="SourceGraphic"/>
    </filter>
    <filter id="Path_242" x="49.195" y="63.488" width="31.604" height="43.93" filterUnits="userSpaceOnUse">
      <feOffset dx="3" dy="3" input="SourceAlpha"/>
      <feGaussianBlur stdDeviation="3" result="blur-8"/>
      <feFlood flood-opacity="0.161"/>
      <feComposite operator="in" in2="blur-8"/>
      <feComposite in="SourceGraphic"/>
    </filter>
    <filter id="EXPERTISE_MADE_SIMPLE" x="0" y="100.292" width="124" height="28" filterUnits="userSpaceOnUse">
      <feOffset dy="3" input="SourceAlpha"/>
      <feGaussianBlur stdDeviation="3" result="blur-9"/>
      <feFlood flood-opacity="0.161"/>
      <feComposite operator="in" in2="blur-9"/>
      <feComposite in="SourceGraphic"/>
    </filter>
  </defs>
  <g id="Group_325" data-name="Group 325" transform="translate(-898 -169.708)">
    <g id="AIILA_LOGO" data-name="AIILA LOGO" transform="translate(909 175.708)">
      <g id="Layer_1" data-name="Layer 1" transform="translate(0 62.049)">
        <g transform="matrix(1, 0, 0, 1, -11, -68.05)" filter="url(#Path_235)">
          <path id="Path_235-2" data-name="Path 235" d="M194.654,461.518c-.307.166-.592.329-.88.482a5.173,5.173,0,0,1-1.816.577,1.636,1.636,0,0,1-1.92-1.2c-.048-.13-.078-.265-.112-.4a5.657,5.657,0,0,1-.117-1.39V446.42a15.417,15.417,0,0,0-.294-3.086,7.713,7.713,0,0,0-1.389-3.261,7.07,7.07,0,0,0-3.29-2.252,16.847,16.847,0,0,0-4.555-.869,18.829,18.829,0,0,0-4.953.238,10.023,10.023,0,0,0-4.5,1.978,5.041,5.041,0,0,0-1.221,1.329,2.316,2.316,0,0,0-.391,1.478,2.141,2.141,0,0,0,1.457,1.906,2.221,2.221,0,0,0,2.3-.514,4.738,4.738,0,0,0,1.194-1.738c.26-.6.54-1.2.769-1.809a2.352,2.352,0,0,1,1.846-1.489,9.21,9.21,0,0,1,3.4-.052,5.722,5.722,0,0,1,1.684.475,2.853,2.853,0,0,1,1.738,2.229,4.032,4.032,0,0,1-.579,2.777,7.8,7.8,0,0,1-1.976,2.108,23.875,23.875,0,0,1-5.743,3.045c-1.055.424-2.153.735-3.177,1.238a8.129,8.129,0,0,0-3.232,2.609,7.57,7.57,0,0,0-1.005,6.344,6.568,6.568,0,0,0,4.284,4.643,10.009,10.009,0,0,0,6.2.348,9.117,9.117,0,0,0,5.293-3.488.6.6,0,0,1,.108-.088.477.477,0,0,1,.11.3,3.527,3.527,0,0,0,2.4,2.925,8.711,8.711,0,0,0,4.489.367,10.393,10.393,0,0,0,3.646-1.409C195.136,462.285,195.134,462.283,194.654,461.518Zm-11.008-14.579q0,3.083,0,6.169a13.983,13.983,0,0,1-.986,5.514,6.817,6.817,0,0,1-1.468,2.3,4.391,4.391,0,0,1-4.719.823,3.489,3.489,0,0,1-1.5-1.31,7.689,7.689,0,0,1-.205-7.65,6.11,6.11,0,0,1,2.73-2.529,33.514,33.514,0,0,0,4.74-2.75,11.931,11.931,0,0,0,1.336-1.128A1.026,1.026,0,0,1,183.646,446.939Z" transform="translate(-156.62 -368.84)" fill="#161617"/>
        </g>
      </g>
      <g id="Layer_7" data-name="Layer 7" transform="translate(73.754 62.037)">
        <g transform="matrix(1, 0, 0, 1, -84.75, -68.04)" filter="url(#Path_236)">
          <path id="Path_236-2" data-name="Path 236" d="M536.167,462.032a.821.821,0,0,1-.073-.136c-.234-.469-.195-.456-.619-.2a5.952,5.952,0,0,1-2.159.83,1.7,1.7,0,0,1-2.127-1.323,6.566,6.566,0,0,1-.2-1.848q0-6.589,0-13.174a13.711,13.711,0,0,0-.34-3.186,6.875,6.875,0,0,0-1.993-3.677,8.1,8.1,0,0,0-2.914-1.636,18.254,18.254,0,0,0-4.785-.8,16.843,16.843,0,0,0-5.343.486A9,9,0,0,0,511.4,439.7a3.337,3.337,0,0,0-.918,1.537,2.188,2.188,0,0,0,1.5,2.65,2.242,2.242,0,0,0,2.2-.558,4.934,4.934,0,0,0,1.208-1.79c.251-.588.519-1.169.748-1.766A2.362,2.362,0,0,1,518,438.3a9.316,9.316,0,0,1,3.4-.048,5.762,5.762,0,0,1,1.636.465,2.919,2.919,0,0,1,1.818,2.775,4.444,4.444,0,0,1-1.186,3.015,10.336,10.336,0,0,1-2.406,2.034,30.833,30.833,0,0,1-6.421,2.965,13.121,13.121,0,0,0-2.259,1.025,7,7,0,0,0-3.737,6.32,7.566,7.566,0,0,0,.7,3.471,7.023,7.023,0,0,0,4.112,3.5,9.777,9.777,0,0,0,4.076.523,9.423,9.423,0,0,0,4.1-1.143,9.029,9.029,0,0,0,3.188-2.823c.039.214.061.333.082.45a3.658,3.658,0,0,0,2.734,3,9.193,9.193,0,0,0,1.828.329,9.849,9.849,0,0,0,6.412-1.759C536.227,462.305,536.292,462.2,536.167,462.032Zm-11.358-7.8a11.642,11.642,0,0,1-1.534,5.527,4.278,4.278,0,0,1-3.171,2.255,3.742,3.742,0,0,1-4.143-1.962,7.48,7.48,0,0,1,.2-7.6,5.7,5.7,0,0,1,2.538-2.22,39.853,39.853,0,0,0,3.884-2.164,13.877,13.877,0,0,0,2.272-1.794C524.83,449.012,524.921,451.621,524.808,454.228Z" transform="translate(-424.08 -368.81)" fill="#161617"/>
        </g>
      </g>
      <g id="Layer_8" data-name="Layer 8" transform="translate(5.233 0)">
        <g transform="matrix(1, 0, 0, 1, -16.23, -6)" filter="url(#Path_237)">
          <path id="Path_237-2" data-name="Path 237" d="M284.678,207.048a.427.427,0,0,1-.354.126h-.784s-19.827-.044-21.37,0h-.27a1.865,1.865,0,0,1-.4-.022.528.528,0,0,1-.314-.143.506.506,0,0,1-.112-.348.453.453,0,0,1,.447-.525,4.142,4.142,0,0,1,.569-.013H282.04l-43.492-54.062c-.635.759-1.232,1.472-1.824,2.185L220.169,174.2l-15.928,19.191q-5.33,6.423-10.665,12.843a2.042,2.042,0,0,1-.324.331.906.906,0,0,1-1.312-1.208,2.821,2.821,0,0,1,.255-.326q12.871-15.494,25.745-30.986,9.794-11.782,19.585-23.566a2.6,2.6,0,0,0,.2-.238.995.995,0,0,1,1.66,0c.594.806,1.249,1.567,1.876,2.349l22.555,28.1c.6.746,6.5,8.1,18.3,22.805q1.282,1.595,2.565,3.195a.362.362,0,0,1,0,.363Z" transform="translate(-175.57 -143.79)" fill="#161617"/>
        </g>
      </g>
      <g id="Layer_6" data-name="Layer 6" transform="translate(58.514 50.935)">
        <g transform="matrix(1, 0, 0, 1, -69.51, -56.93)" filter="url(#Path_238)">
          <path id="Path_238-2" data-name="Path 238" d="M451.955,423.83c-.1.164-.322.071-.486.061a19.35,19.35,0,0,1-3.376-.486,10.718,10.718,0,0,1-3.692-1.567,5.119,5.119,0,0,1-2.272-3.562,8.417,8.417,0,0,1-.044-1.189q0-13.2,0-26.4a6.671,6.671,0,0,0-.21-1.794,2.53,2.53,0,0,0-2.979-1.958c-.168.015-.335.039-.491.056a.524.524,0,0,1-.052-.123c-.05-.8-.047-.793.748-.906,1.042-.145,2.086-.287,3.123-.46a5.279,5.279,0,0,1,6.11,4.82c.026.378.039.759.039,1.139q0,13.044,0,26.086a9.749,9.749,0,0,0,.344,2.816,4.8,4.8,0,0,0,.521,1.18A3.051,3.051,0,0,0,451.622,423c.13.015.32-.044.359.125A.987.987,0,0,1,451.955,423.83Z" transform="translate(-368.82 -328.5)" fill="#161617"/>
        </g>
      </g>
      <g id="Layer_4" data-name="Layer 4" transform="translate(27.228 43.564)">
        <g id="Group_2" data-name="Group 2" transform="translate(0 0)">
          <g transform="matrix(1, 0, 0, 1, -38.23, -49.56)" filter="url(#Path_239)">
            <path id="Path_239-2" data-name="Path 239" d="M308.3,358.723a7.354,7.354,0,1,1-7.174-7.368A7.354,7.354,0,0,1,308.3,358.723Z" transform="translate(-255.37 -301.79)" fill="#c13c2c"/>
          </g>
          <g transform="matrix(1, 0, 0, 1, -38.23, -49.56)" filter="url(#Path_240)">
            <path id="Path_240-2" data-name="Path 240" d="M309.744,469.255c-.073.141-.251.078-.383.069a22.556,22.556,0,0,1-2.468-.27,14.082,14.082,0,0,1-3.694-1.13,7.434,7.434,0,0,1-1.647-1.066,4.725,4.725,0,0,1-1.706-3.735q.01-4.769,0-9.538v-5.129a5.9,5.9,0,0,0-.246-1.787,2.364,2.364,0,0,0-2.505-1.822q-.156,0-.31.013c-.623.054-.534.091-.562-.516-.013-.285.133-.35.363-.382,1.161-.166,2.319-.354,3.482-.506a5.284,5.284,0,0,1,5.969,4.042,5.989,5.989,0,0,1,.147,1.334q-.007,3.732,0,7.465v6.737a9.55,9.55,0,0,0,.229,2.313c.028.117.056.236.091.35a3.453,3.453,0,0,0,2.925,2.715c.126.022.326-.039.354.138A1.135,1.135,0,0,1,309.744,469.255Z" transform="translate(-257.42 -373.94)" fill="#c13c2c"/>
          </g>
        </g>
      </g>
      <g id="Layer_5" data-name="Layer 5" transform="translate(44.195 49.057)">
        <g id="Group_3" data-name="Group 3" transform="translate(0 0)">
          <g transform="matrix(1, 0, 0, 1, -55.2, -55.06)" filter="url(#Path_241)">
            <path id="Path_241-2" data-name="Path 241" d="M391.448,381.432a4.592,4.592,0,1,1-4.571-4.613,4.592,4.592,0,0,1,4.571,4.613Z" transform="translate(-324.87 -321.76)" fill="#3796d2"/>
          </g>
          <g transform="matrix(1, 0, 0, 1, -55.2, -55.06)" filter="url(#Path_242)">
            <path id="Path_242-2" data-name="Path 242" d="M385.624,469.366c-.037.11-.177.088-.279.082-.43-.028-.86-.049-1.29-.1a16.217,16.217,0,0,1-4.318-1.012,7.434,7.434,0,0,1-2.795-1.828,4.524,4.524,0,0,1-1.219-2.9c-.013-.242-.013-.484-.013-.726V448.837a7.83,7.83,0,0,0-.19-1.85,2.432,2.432,0,0,0-2.665-2.023c-.069,0-.138,0-.207.007-.575.028-.6-.015-.562-.586.019-.29.225-.281.394-.307.8-.123,1.6-.229,2.406-.344a14.027,14.027,0,0,1,1.952-.21A5.279,5.279,0,0,1,381.965,448a6.664,6.664,0,0,1,.069.929v7.416h.024c0,2.557-.011,5.116.007,7.673a6.47,6.47,0,0,0,.4,2.127,3.367,3.367,0,0,0,2.808,2.38c.127.019.322-.041.361.127A1.3,1.3,0,0,1,385.624,469.366Z" transform="translate(-316.88 -374.04)" fill="#3796d2"/>
          </g>
        </g>
      </g>
    </g>
    <g transform="matrix(1, 0, 0, 1, 898, 169.71)" filter="url(#EXPERTISE_MADE_SIMPLE)">
      <text id="EXPERTISE_MADE_SIMPLE-2" data-name="EXPERTISE MADE SIMPLE" transform="translate(62 114.29)" fill="#2979ff" font-size="8" font-family="Montserrat-Regular, Montserrat"><tspan x="-52.484" y="0">EXPERTISE MADE SIMPLE</tspan></text>
    </g>
  </g>
</svg>
